<mxfile host="app.diagrams.net" modified="2023-09-19T09:57:27.317Z" agent="Mozilla/5.0 (Windows NT 10.0; Win64; x64) AppleWebKit/537.36 (KHTML, like Gecko) Chrome/116.0.0.0 Safari/537.36" etag="oqokim4DunbJTsLIJSHb" version="21.7.4" type="device">
  <diagram name="Page-1" id="hRvIOEoNVUPdqC1DmAwM">
    <mxGraphModel dx="1194" dy="2220" grid="0" gridSize="10" guides="1" tooltips="1" connect="1" arrows="1" fold="1" page="0" pageScale="1" pageWidth="827" pageHeight="1169" math="0" shadow="0">
      <root>
        <mxCell id="0" />
        <mxCell id="1" parent="0" />
        <mxCell id="e23a-DWK8zt-6xIBcOcX-10" value="" style="edgeStyle=none;curved=1;rounded=0;orthogonalLoop=1;jettySize=auto;html=1;fontSize=12;startSize=8;endSize=8;" edge="1" parent="1" source="e23a-DWK8zt-6xIBcOcX-3" target="e23a-DWK8zt-6xIBcOcX-9">
          <mxGeometry relative="1" as="geometry" />
        </mxCell>
        <mxCell id="e23a-DWK8zt-6xIBcOcX-3" value="Start" style="ellipse;whiteSpace=wrap;html=1;fontSize=16;" vertex="1" parent="1">
          <mxGeometry x="121" y="-1509" width="96" height="69" as="geometry" />
        </mxCell>
        <mxCell id="e23a-DWK8zt-6xIBcOcX-17" value="" style="edgeStyle=none;curved=1;rounded=0;orthogonalLoop=1;jettySize=auto;html=1;fontSize=12;startSize=8;endSize=8;" edge="1" parent="1" source="e23a-DWK8zt-6xIBcOcX-4" target="e23a-DWK8zt-6xIBcOcX-12">
          <mxGeometry relative="1" as="geometry" />
        </mxCell>
        <mxCell id="e23a-DWK8zt-6xIBcOcX-4" value="Input Banyak Pesanan&lt;span style=&quot;color: rgb(209, 213, 219); font-family: SÃ¶hne, ui-sans-serif, system-ui, -apple-system, &amp;quot;Segoe UI&amp;quot;, Roboto, Ubuntu, Cantarell, &amp;quot;Noto Sans&amp;quot;, sans-serif, &amp;quot;Helvetica Neue&amp;quot;, Arial, &amp;quot;Apple Color Emoji&amp;quot;, &amp;quot;Segoe UI Emoji&amp;quot;, &amp;quot;Segoe UI Symbol&amp;quot;, &amp;quot;Noto Color Emoji&amp;quot;; text-align: left; background-color: rgb(68, 70, 84);&quot;&gt;:&lt;/span&gt;" style="shape=parallelogram;perimeter=parallelogramPerimeter;whiteSpace=wrap;html=1;fixedSize=1;fontSize=16;" vertex="1" parent="1">
          <mxGeometry x="97.5" y="-1177" width="135" height="65" as="geometry" />
        </mxCell>
        <mxCell id="e23a-DWK8zt-6xIBcOcX-11" value="" style="edgeStyle=none;curved=1;rounded=0;orthogonalLoop=1;jettySize=auto;html=1;fontSize=12;startSize=8;endSize=8;" edge="1" parent="1" source="e23a-DWK8zt-6xIBcOcX-8" target="e23a-DWK8zt-6xIBcOcX-4">
          <mxGeometry relative="1" as="geometry" />
        </mxCell>
        <mxCell id="e23a-DWK8zt-6xIBcOcX-8" value="" style="verticalLabelPosition=bottom;verticalAlign=top;html=1;shape=hexagon;perimeter=hexagonPerimeter2;arcSize=6;size=0.27;fontSize=16;" vertex="1" parent="1">
          <mxGeometry x="61" y="-1383" width="216" height="130" as="geometry" />
        </mxCell>
        <mxCell id="e23a-DWK8zt-6xIBcOcX-9" value="String namaItem int hargaItem int jumlahItem" style="text;html=1;strokeColor=none;fillColor=none;align=center;verticalAlign=middle;whiteSpace=wrap;rounded=0;fontSize=16;" vertex="1" parent="1">
          <mxGeometry x="135" y="-1340" width="60" height="30" as="geometry" />
        </mxCell>
        <mxCell id="e23a-DWK8zt-6xIBcOcX-14" value="" style="edgeStyle=none;curved=1;rounded=0;orthogonalLoop=1;jettySize=auto;html=1;fontSize=12;startSize=8;endSize=8;" edge="1" parent="1" source="e23a-DWK8zt-6xIBcOcX-12" target="e23a-DWK8zt-6xIBcOcX-13">
          <mxGeometry relative="1" as="geometry" />
        </mxCell>
        <mxCell id="e23a-DWK8zt-6xIBcOcX-19" value="" style="edgeStyle=none;curved=1;rounded=0;orthogonalLoop=1;jettySize=auto;html=1;fontSize=12;startSize=8;endSize=8;" edge="1" parent="1" source="e23a-DWK8zt-6xIBcOcX-12" target="e23a-DWK8zt-6xIBcOcX-18">
          <mxGeometry relative="1" as="geometry" />
        </mxCell>
        <mxCell id="e23a-DWK8zt-6xIBcOcX-12" value="namaItem, hargaItem, dan hargaItem error" style="rhombus;whiteSpace=wrap;html=1;fontSize=16;" vertex="1" parent="1">
          <mxGeometry x="46.5" y="-1022" width="237" height="143" as="geometry" />
        </mxCell>
        <mxCell id="e23a-DWK8zt-6xIBcOcX-16" style="edgeStyle=none;curved=1;rounded=0;orthogonalLoop=1;jettySize=auto;html=1;entryX=1;entryY=0.5;entryDx=0;entryDy=0;fontSize=12;startSize=8;endSize=8;" edge="1" parent="1" source="e23a-DWK8zt-6xIBcOcX-13" target="e23a-DWK8zt-6xIBcOcX-4">
          <mxGeometry relative="1" as="geometry" />
        </mxCell>
        <mxCell id="e23a-DWK8zt-6xIBcOcX-13" value="hapus item" style="rounded=0;whiteSpace=wrap;html=1;fontSize=16;" vertex="1" parent="1">
          <mxGeometry x="378" y="-989" width="120" height="68.5" as="geometry" />
        </mxCell>
        <mxCell id="e23a-DWK8zt-6xIBcOcX-15" value="yes" style="text;html=1;strokeColor=none;fillColor=none;align=center;verticalAlign=middle;whiteSpace=wrap;rounded=0;fontSize=16;" vertex="1" parent="1">
          <mxGeometry x="297" y="-1006" width="60" height="30" as="geometry" />
        </mxCell>
        <mxCell id="e23a-DWK8zt-6xIBcOcX-21" value="" style="edgeStyle=none;curved=1;rounded=0;orthogonalLoop=1;jettySize=auto;html=1;fontSize=12;startSize=8;endSize=8;" edge="1" parent="1" source="e23a-DWK8zt-6xIBcOcX-18" target="e23a-DWK8zt-6xIBcOcX-20">
          <mxGeometry relative="1" as="geometry" />
        </mxCell>
        <mxCell id="e23a-DWK8zt-6xIBcOcX-18" value="cek order" style="rounded=0;whiteSpace=wrap;html=1;fontSize=16;" vertex="1" parent="1">
          <mxGeometry x="105" y="-789" width="120" height="60" as="geometry" />
        </mxCell>
        <mxCell id="e23a-DWK8zt-6xIBcOcX-23" value="" style="edgeStyle=none;curved=1;rounded=0;orthogonalLoop=1;jettySize=auto;html=1;fontSize=12;startSize=8;endSize=8;" edge="1" parent="1" source="e23a-DWK8zt-6xIBcOcX-20" target="e23a-DWK8zt-6xIBcOcX-22">
          <mxGeometry relative="1" as="geometry" />
        </mxCell>
        <mxCell id="e23a-DWK8zt-6xIBcOcX-20" value="pesanan sudah benar" style="rounded=0;whiteSpace=wrap;html=1;fontSize=16;" vertex="1" parent="1">
          <mxGeometry x="103" y="-645" width="120" height="60" as="geometry" />
        </mxCell>
        <mxCell id="e23a-DWK8zt-6xIBcOcX-25" value="" style="edgeStyle=none;curved=1;rounded=0;orthogonalLoop=1;jettySize=auto;html=1;fontSize=12;startSize=8;endSize=8;" edge="1" parent="1" source="e23a-DWK8zt-6xIBcOcX-22" target="e23a-DWK8zt-6xIBcOcX-24">
          <mxGeometry relative="1" as="geometry" />
        </mxCell>
        <mxCell id="e23a-DWK8zt-6xIBcOcX-22" value="check out" style="rounded=0;whiteSpace=wrap;html=1;fontSize=16;" vertex="1" parent="1">
          <mxGeometry x="101" y="-518" width="120" height="60" as="geometry" />
        </mxCell>
        <mxCell id="e23a-DWK8zt-6xIBcOcX-27" value="" style="edgeStyle=none;curved=1;rounded=0;orthogonalLoop=1;jettySize=auto;html=1;fontSize=12;startSize=8;endSize=8;" edge="1" parent="1" source="e23a-DWK8zt-6xIBcOcX-24" target="e23a-DWK8zt-6xIBcOcX-26">
          <mxGeometry relative="1" as="geometry" />
        </mxCell>
        <mxCell id="e23a-DWK8zt-6xIBcOcX-32" style="edgeStyle=none;curved=1;rounded=0;orthogonalLoop=1;jettySize=auto;html=1;entryX=1;entryY=0.5;entryDx=0;entryDy=0;fontSize=12;startSize=8;endSize=8;" edge="1" parent="1" source="e23a-DWK8zt-6xIBcOcX-24" target="e23a-DWK8zt-6xIBcOcX-29">
          <mxGeometry relative="1" as="geometry">
            <Array as="points">
              <mxPoint x="669" y="-162" />
            </Array>
          </mxGeometry>
        </mxCell>
        <mxCell id="e23a-DWK8zt-6xIBcOcX-24" value="dapat diskon?" style="rhombus;whiteSpace=wrap;html=1;fontSize=16;" vertex="1" parent="1">
          <mxGeometry x="99.25" y="-378" width="127.5" height="92" as="geometry" />
        </mxCell>
        <mxCell id="e23a-DWK8zt-6xIBcOcX-26" value="" style="verticalLabelPosition=bottom;verticalAlign=top;html=1;shape=process;whiteSpace=wrap;rounded=1;size=0.14;arcSize=6;fontSize=16;" vertex="1" parent="1">
          <mxGeometry x="43.5" y="-219" width="239" height="132" as="geometry" />
        </mxCell>
        <mxCell id="e23a-DWK8zt-6xIBcOcX-30" value="" style="edgeStyle=none;curved=1;rounded=0;orthogonalLoop=1;jettySize=auto;html=1;fontSize=12;startSize=8;endSize=8;" edge="1" parent="1" source="e23a-DWK8zt-6xIBcOcX-28" target="e23a-DWK8zt-6xIBcOcX-29">
          <mxGeometry relative="1" as="geometry" />
        </mxCell>
        <mxCell id="e23a-DWK8zt-6xIBcOcX-28" value="total harga &amp;gt; 200rb diskon 5%&lt;br&gt;total harga &amp;gt; 300rb diskon 8%&lt;br&gt;total harga &amp;gt; 500rb&lt;br&gt;diskon 10%" style="text;html=1;strokeColor=none;fillColor=none;align=center;verticalAlign=middle;whiteSpace=wrap;rounded=0;fontSize=16;" vertex="1" parent="1">
          <mxGeometry x="82.5" y="-193" width="165" height="88" as="geometry" />
        </mxCell>
        <mxCell id="e23a-DWK8zt-6xIBcOcX-33" value="" style="edgeStyle=none;curved=1;rounded=0;orthogonalLoop=1;jettySize=auto;html=1;fontSize=12;startSize=8;endSize=8;" edge="1" parent="1" source="e23a-DWK8zt-6xIBcOcX-29" target="e23a-DWK8zt-6xIBcOcX-31">
          <mxGeometry relative="1" as="geometry" />
        </mxCell>
        <mxCell id="e23a-DWK8zt-6xIBcOcX-29" value="tampil harga" style="shape=parallelogram;perimeter=parallelogramPerimeter;whiteSpace=wrap;html=1;fixedSize=1;fontSize=16;" vertex="1" parent="1">
          <mxGeometry x="101" y="1" width="120" height="60" as="geometry" />
        </mxCell>
        <mxCell id="e23a-DWK8zt-6xIBcOcX-31" value="end" style="ellipse;whiteSpace=wrap;html=1;fontSize=16;" vertex="1" parent="1">
          <mxGeometry x="103" y="147" width="120" height="80" as="geometry" />
        </mxCell>
      </root>
    </mxGraphModel>
  </diagram>
</mxfile>
